# xmcd
#
# Track frame offsets:
#	182
#	14060
#	28527
#	41672
#	54572
#	67290
#	76872
#	94230
#	113097
#	127947
#	137655
#	153965
#	169945
#	179632
#	191975
#	205872
#	214635
#	233582
#	243552
#	254715
#
# Disc length: 3633
#
# Revision: 1
# Processed by: cddbd v1.5.1PL0 Copyright (c) Steve Scherf et al.
# Submitted via: EasyCDDAExtractor 4.6.0.1
# Normalized: r0:TDELIM( - )
#
DISCID=250e2f14
DTITLE=Samlingsskiva - Country Christmas
DYEAR=1996
DGENRE=Country
TTITLE0=Dolly Parton - White Christmas
TTITLE1=Glen Campbell - Have yourself a merry little Christmas
TTITLE2=Daniel O'Donnell - An old Christmas Card
TTITLE3=The Judds - Santa Claus is coming to town
TTITLE4=Don Williams - You're my best friend
TTITLE5=Lorette Lynn - Country Christmas
TTITLE6=Don McLean - Oh Little Town of Bethlehem
TTITLE7=Nanci Griffith - From a distance
TTITLE8=Freddy Fender - Please come home for Christmas
TTITLE9=Eddie Rabbitt - Rockin' around the Christmas tree
TTITLE10=Daniel O'Donnell - When a child is born
TTITLE11=Wynonna - Let's make a Baby King
TTITLE12=Willie Nelson - What a merry Christmas this could be
TTITLE13=Patsy Cline - Crazy
TTITLE14=Bobby Vinton - Christmas in my home town
TTITLE15=Loretta Lynn - Frosty the Snowman
TTITLE16=Delbert McClinton - Have a little faith in me
TTITLE17=Freddy Fender - Blue Christmas
TTITLE18=Jeff Carson - Santa got lost in Texas
TTITLE19=Don McLean - White Christmas
EXTD=
EXTT0=
EXTT1=
EXTT2=
EXTT3=
EXTT4=
EXTT5=
EXTT6=
EXTT7=
EXTT8=
EXTT9=
EXTT10=
EXTT11=
EXTT12=
EXTT13=
EXTT14=
EXTT15=
EXTT16=
EXTT17=
EXTT18=
EXTT19=
PLAYORDER=
